<svg xmlns="http://www.w3.org/2000/svg" width="29.713" height="27.236" viewBox="0 0 29.713 27.236">
  <path id="Path_3014" data-name="Path 3014" d="M33.713,28.522V23.57a1.238,1.238,0,0,0-2.476,0v4.952A1.238,1.238,0,0,1,30,29.76H7.714a1.238,1.238,0,0,1-1.238-1.238V23.57A1.238,1.238,0,1,0,4,23.57v4.952a3.714,3.714,0,0,0,3.714,3.714H30A3.714,3.714,0,0,0,33.713,28.522Zm-7.9-6.462-6.19,4.952a1.238,1.238,0,0,1-1.535,0L11.9,22.06a1.238,1.238,0,0,1,1.535-1.931l4.185,3.343V6.238a1.238,1.238,0,1,1,2.476,0V23.471l4.185-3.343a1.238,1.238,0,1,1,1.535,1.931Z" transform="translate(-4 -5)" fill="#fff"/>
</svg>
