<svg xmlns="http://www.w3.org/2000/svg" width="23.753" height="31.57" viewBox="0 0 23.753 31.57">
  <path id="Path_3012" data-name="Path 3012" d="M75.726,0A11.738,11.738,0,0,0,64,11.726c0,8.128,10.585,18.807,11.035,19.259a.981.981,0,0,0,1.384,0c.449-.451,11.035-11.13,11.035-19.259A11.738,11.738,0,0,0,75.726,0Zm0,28.88c-2.334-2.5-9.772-10.945-9.772-17.154a9.772,9.772,0,0,1,19.544,0C85.5,17.93,78.06,26.382,75.726,28.88Z" transform="translate(-63.85 0.15)" fill="#fff" stroke="#fff" stroke-width="0.3"/>
</svg>
