<svg xmlns="http://www.w3.org/2000/svg" width="21.701" height="21.697" viewBox="0 0 21.701 21.697">
  <g id="Group_1086" data-name="Group 1086" transform="translate(-18.482 -16.669)">
    <g id="Group_959" data-name="Group 959" transform="translate(18.483 16.667)">
      <path id="Union_41" data-name="Union 41" d="M11389.321,6565.452a4.521,4.521,0,0,1,0-6.391l5.115-5.115a4.521,4.521,0,0,1,6.4,0,.9.9,0,0,1-1.281,1.275,2.713,2.713,0,0,0-3.834,0l-5.115,5.115a2.711,2.711,0,0,0,3.834,3.834l2.557-2.558a.914.914,0,0,1,1.281,0,.9.9,0,0,1,0,1.281l-2.557,2.558a4.529,4.529,0,0,1-6.4,0Zm7.037-7.031a.9.9,0,0,1,1.275-1.282,2.711,2.711,0,0,0,3.834,0l5.629-5.624a2.712,2.712,0,1,0-3.838-3.834l-3.066,3.067a.9.9,0,0,1-1.277-1.282l3.068-3.066a4.519,4.519,0,0,1,6.391,6.391l-5.625,5.631a4.524,4.524,0,0,1-6.391,0Z" transform="translate(-11387.999 -6545.075)" fill="#0e2d49"/>
    </g>
  </g>
</svg>
