<svg xmlns="http://www.w3.org/2000/svg" width="24.7" height="24.7" viewBox="0 0 24.7 24.7">
  <path id="edit_2_" data-name="edit (2)" d="M2.25,8.267A6.017,6.017,0,0,1,8.267,2.25H20.933A6.017,6.017,0,0,1,26.95,8.267V20.933a6.017,6.017,0,0,1-6.017,6.017H3.833A1.583,1.583,0,0,1,2.25,25.367ZM8.267,4.15A4.117,4.117,0,0,0,4.15,8.267V25.05H20.933a4.117,4.117,0,0,0,4.117-4.117V8.267A4.117,4.117,0,0,0,20.933,4.15Zm9.259,3.173a3.772,3.772,0,0,1,3.027,1.341,3.758,3.758,0,0,1,1.322,3.028,4.11,4.11,0,0,1-1.323,2.431L13.977,20.7a2.932,2.932,0,0,1-.765.529,3.012,3.012,0,0,1-.874.284l-2.514.355a2.315,2.315,0,0,1-1.952-.472,2.23,2.23,0,0,1-.536-2.024v0l.354-2.5a3.014,3.014,0,0,1,.284-.874,2.93,2.93,0,0,1,.529-.765L15.079,8.65a4.1,4.1,0,0,1,2.447-1.327Zm.18,1.891a2.277,2.277,0,0,0-1.284.779l-.521.521a4.992,4.992,0,0,0,2.791,2.781l.516-.516a2.282,2.282,0,0,0,.776-1.277c.03-.3-.063-.783-.776-1.5l0,0C18.49,9.282,18.006,9.186,17.706,9.214Zm-.441,5.508a6.9,6.9,0,0,1-2.789-2.783L9.848,16.567a1.1,1.1,0,0,0-.168.261,1.177,1.177,0,0,0-.108.3h0l-.355,2.513A1.408,1.408,0,0,0,9.2,20a1.441,1.441,0,0,0,.365-.013h0l2.5-.354a1.184,1.184,0,0,0,.3-.108,1.11,1.11,0,0,0,.261-.168Z" transform="translate(-2.25 -2.25)" fill="#036ae1" fill-rule="evenodd"/>
</svg>
