<svg xmlns="http://www.w3.org/2000/svg" width="28" height="535.236" viewBox="0 0 28 535.236">
  <g id="Group_918" data-name="Group 918" transform="translate(-1649 -492.198)">
    <g id="Layer_2" data-name="Layer 2" transform="translate(1647.75 490.948)">
      <path id="Path_3154" data-name="Path 3154" d="M24.366,28.645H6.134A4.889,4.889,0,0,1,1.25,23.762V8.134A4.889,4.889,0,0,1,6.134,3.25H24.366A4.89,4.89,0,0,1,29.25,8.134V23.762a4.89,4.89,0,0,1-4.884,4.884ZM6.134,5.2A2.933,2.933,0,0,0,3.2,8.134V23.762a2.933,2.933,0,0,0,2.93,2.93H24.366a2.934,2.934,0,0,0,2.93-2.93V8.134a2.934,2.934,0,0,0-2.93-2.93Z" transform="translate(0 0.605)" fill="#1b9c5d"/>
      <path id="Path_3155" data-name="Path 3155" d="M28.273,11.715H2.227a.977.977,0,0,1-.977-.977v-2.6A4.889,4.889,0,0,1,6.134,3.25H24.366A4.89,4.89,0,0,1,29.25,8.134v2.6A.977.977,0,0,1,28.273,11.715ZM3.2,9.762H27.3V8.134a2.934,2.934,0,0,0-2.93-2.93H6.134A2.933,2.933,0,0,0,3.2,8.134Z" transform="translate(0 0.605)" fill="#1b9c5d"/>
      <path id="Path_3156" data-name="Path 3156" d="M16.227,8.413a.977.977,0,0,1-.977-.977V2.227a.977.977,0,1,1,1.953,0V7.436A.977.977,0,0,1,16.227,8.413Z" transform="translate(4.233)" fill="#1b9c5d"/>
      <path id="Path_3157" data-name="Path 3157" d="M8.227,8.413a.977.977,0,0,1-.977-.977V2.227a.977.977,0,1,1,1.953,0V7.436A.977.977,0,0,1,8.227,8.413Z" transform="translate(1.814)" fill="#1b9c5d"/>
      <path id="Path_3158" data-name="Path 3158" d="M11.826,19.407a.969.969,0,0,1-.69-.287l-2.6-2.6a.977.977,0,0,1,1.38-1.38l1.914,1.913,4.519-4.518a.977.977,0,0,1,1.38,1.38l-5.209,5.209a.969.969,0,0,1-.69.287Z" transform="translate(2.122 3.331)" fill="#1b9c5d"/>
    </g>
    <g id="Layer_2-2" data-name="Layer 2" transform="translate(1647.75 555.948)">
      <path id="Path_3154-2" data-name="Path 3154" d="M24.366,28.645H6.134A4.889,4.889,0,0,1,1.25,23.762V8.134A4.889,4.889,0,0,1,6.134,3.25H24.366A4.89,4.89,0,0,1,29.25,8.134V23.762a4.89,4.89,0,0,1-4.884,4.884ZM6.134,5.2A2.933,2.933,0,0,0,3.2,8.134V23.762a2.933,2.933,0,0,0,2.93,2.93H24.366a2.934,2.934,0,0,0,2.93-2.93V8.134a2.934,2.934,0,0,0-2.93-2.93Z" transform="translate(0 0.605)" fill="#1b9c5d"/>
      <path id="Path_3155-2" data-name="Path 3155" d="M28.273,11.715H2.227a.977.977,0,0,1-.977-.977v-2.6A4.889,4.889,0,0,1,6.134,3.25H24.366A4.89,4.89,0,0,1,29.25,8.134v2.6A.977.977,0,0,1,28.273,11.715ZM3.2,9.762H27.3V8.134a2.934,2.934,0,0,0-2.93-2.93H6.134A2.933,2.933,0,0,0,3.2,8.134Z" transform="translate(0 0.605)" fill="#1b9c5d"/>
      <path id="Path_3156-2" data-name="Path 3156" d="M16.227,8.413a.977.977,0,0,1-.977-.977V2.227a.977.977,0,1,1,1.953,0V7.436A.977.977,0,0,1,16.227,8.413Z" transform="translate(4.233)" fill="#1b9c5d"/>
      <path id="Path_3157-2" data-name="Path 3157" d="M8.227,8.413a.977.977,0,0,1-.977-.977V2.227a.977.977,0,1,1,1.953,0V7.436A.977.977,0,0,1,8.227,8.413Z" transform="translate(1.814)" fill="#1b9c5d"/>
      <path id="Path_3158-2" data-name="Path 3158" d="M11.826,19.407a.969.969,0,0,1-.69-.287l-2.6-2.6a.977.977,0,0,1,1.38-1.38l1.914,1.913,4.519-4.518a.977.977,0,0,1,1.38,1.38l-5.209,5.209a.969.969,0,0,1-.69.287Z" transform="translate(2.122 3.331)" fill="#1b9c5d"/>
    </g>
    <g id="Layer_2-3" data-name="Layer 2" transform="translate(1647.75 618.552)">
      <path id="Path_3154-3" data-name="Path 3154" d="M24.366,28.645H6.134A4.889,4.889,0,0,1,1.25,23.762V8.134A4.889,4.889,0,0,1,6.134,3.25H24.366A4.89,4.89,0,0,1,29.25,8.134V23.762a4.89,4.89,0,0,1-4.884,4.884ZM6.134,5.2A2.933,2.933,0,0,0,3.2,8.134V23.762a2.933,2.933,0,0,0,2.93,2.93H24.366a2.934,2.934,0,0,0,2.93-2.93V8.134a2.934,2.934,0,0,0-2.93-2.93Z" transform="translate(0 0.605)" fill="#1b9c5d"/>
      <path id="Path_3155-3" data-name="Path 3155" d="M28.273,11.715H2.227a.977.977,0,0,1-.977-.977v-2.6A4.889,4.889,0,0,1,6.134,3.25H24.366A4.89,4.89,0,0,1,29.25,8.134v2.6A.977.977,0,0,1,28.273,11.715ZM3.2,9.762H27.3V8.134a2.934,2.934,0,0,0-2.93-2.93H6.134A2.933,2.933,0,0,0,3.2,8.134Z" transform="translate(0 0.605)" fill="#1b9c5d"/>
      <path id="Path_3156-3" data-name="Path 3156" d="M16.227,8.413a.977.977,0,0,1-.977-.977V2.227a.977.977,0,1,1,1.953,0V7.436A.977.977,0,0,1,16.227,8.413Z" transform="translate(4.233)" fill="#1b9c5d"/>
      <path id="Path_3157-3" data-name="Path 3157" d="M8.227,8.413a.977.977,0,0,1-.977-.977V2.227a.977.977,0,1,1,1.953,0V7.436A.977.977,0,0,1,8.227,8.413Z" transform="translate(1.814)" fill="#1b9c5d"/>
      <path id="Path_3158-3" data-name="Path 3158" d="M11.826,19.407a.969.969,0,0,1-.69-.287l-2.6-2.6a.977.977,0,0,1,1.38-1.38l1.914,1.913,4.519-4.518a.977.977,0,0,1,1.38,1.38l-5.209,5.209a.969.969,0,0,1-.69.287Z" transform="translate(2.122 3.331)" fill="#1b9c5d"/>
    </g>
    <g id="Layer_2-4" data-name="Layer 2" transform="translate(1647.75 681.552)">
      <path id="Path_3154-4" data-name="Path 3154" d="M24.366,28.645H6.134A4.889,4.889,0,0,1,1.25,23.762V8.134A4.889,4.889,0,0,1,6.134,3.25H24.366A4.89,4.89,0,0,1,29.25,8.134V23.762a4.89,4.89,0,0,1-4.884,4.884ZM6.134,5.2A2.933,2.933,0,0,0,3.2,8.134V23.762a2.933,2.933,0,0,0,2.93,2.93H24.366a2.934,2.934,0,0,0,2.93-2.93V8.134a2.934,2.934,0,0,0-2.93-2.93Z" transform="translate(0 0.605)" fill="#1b9c5d"/>
      <path id="Path_3155-4" data-name="Path 3155" d="M28.273,11.715H2.227a.977.977,0,0,1-.977-.977v-2.6A4.889,4.889,0,0,1,6.134,3.25H24.366A4.89,4.89,0,0,1,29.25,8.134v2.6A.977.977,0,0,1,28.273,11.715ZM3.2,9.762H27.3V8.134a2.934,2.934,0,0,0-2.93-2.93H6.134A2.933,2.933,0,0,0,3.2,8.134Z" transform="translate(0 0.605)" fill="#1b9c5d"/>
      <path id="Path_3156-4" data-name="Path 3156" d="M16.227,8.413a.977.977,0,0,1-.977-.977V2.227a.977.977,0,1,1,1.953,0V7.436A.977.977,0,0,1,16.227,8.413Z" transform="translate(4.233)" fill="#1b9c5d"/>
      <path id="Path_3157-4" data-name="Path 3157" d="M8.227,8.413a.977.977,0,0,1-.977-.977V2.227a.977.977,0,1,1,1.953,0V7.436A.977.977,0,0,1,8.227,8.413Z" transform="translate(1.814)" fill="#1b9c5d"/>
      <path id="Path_3158-4" data-name="Path 3158" d="M11.826,19.407a.969.969,0,0,1-.69-.287l-2.6-2.6a.977.977,0,0,1,1.38-1.38l1.914,1.913,4.519-4.518a.977.977,0,0,1,1.38,1.38l-5.209,5.209a.969.969,0,0,1-.69.287Z" transform="translate(2.122 3.331)" fill="#1b9c5d"/>
    </g>
    <g id="Layer_2-5" data-name="Layer 2" transform="translate(1647.75 744.185)">
      <path id="Path_3154-5" data-name="Path 3154" d="M24.366,28.645H6.134A4.889,4.889,0,0,1,1.25,23.762V8.134A4.889,4.889,0,0,1,6.134,3.25H24.366A4.89,4.89,0,0,1,29.25,8.134V23.762a4.89,4.89,0,0,1-4.884,4.884ZM6.134,5.2A2.933,2.933,0,0,0,3.2,8.134V23.762a2.933,2.933,0,0,0,2.93,2.93H24.366a2.934,2.934,0,0,0,2.93-2.93V8.134a2.934,2.934,0,0,0-2.93-2.93Z" transform="translate(0 0.605)" fill="#1b9c5d"/>
      <path id="Path_3155-5" data-name="Path 3155" d="M28.273,11.715H2.227a.977.977,0,0,1-.977-.977v-2.6A4.889,4.889,0,0,1,6.134,3.25H24.366A4.89,4.89,0,0,1,29.25,8.134v2.6A.977.977,0,0,1,28.273,11.715ZM3.2,9.762H27.3V8.134a2.934,2.934,0,0,0-2.93-2.93H6.134A2.933,2.933,0,0,0,3.2,8.134Z" transform="translate(0 0.605)" fill="#1b9c5d"/>
      <path id="Path_3156-5" data-name="Path 3156" d="M16.227,8.413a.977.977,0,0,1-.977-.977V2.227a.977.977,0,1,1,1.953,0V7.436A.977.977,0,0,1,16.227,8.413Z" transform="translate(4.233)" fill="#1b9c5d"/>
      <path id="Path_3157-5" data-name="Path 3157" d="M8.227,8.413a.977.977,0,0,1-.977-.977V2.227a.977.977,0,1,1,1.953,0V7.436A.977.977,0,0,1,8.227,8.413Z" transform="translate(1.814)" fill="#1b9c5d"/>
      <path id="Path_3158-5" data-name="Path 3158" d="M11.826,19.407a.969.969,0,0,1-.69-.287l-2.6-2.6a.977.977,0,0,1,1.38-1.38l1.914,1.913,4.519-4.518a.977.977,0,0,1,1.38,1.38l-5.209,5.209a.969.969,0,0,1-.69.287Z" transform="translate(2.122 3.331)" fill="#1b9c5d"/>
    </g>
    <g id="Layer_2-6" data-name="Layer 2" transform="translate(1647.75 807.582)">
      <path id="Path_3154-6" data-name="Path 3154" d="M24.366,28.645H6.134A4.889,4.889,0,0,1,1.25,23.762V8.134A4.889,4.889,0,0,1,6.134,3.25H24.366A4.89,4.89,0,0,1,29.25,8.134V23.762a4.89,4.89,0,0,1-4.884,4.884ZM6.134,5.2A2.933,2.933,0,0,0,3.2,8.134V23.762a2.933,2.933,0,0,0,2.93,2.93H24.366a2.934,2.934,0,0,0,2.93-2.93V8.134a2.934,2.934,0,0,0-2.93-2.93Z" transform="translate(0 0.605)" fill="#1b9c5d"/>
      <path id="Path_3155-6" data-name="Path 3155" d="M28.273,11.715H2.227a.977.977,0,0,1-.977-.977v-2.6A4.889,4.889,0,0,1,6.134,3.25H24.366A4.89,4.89,0,0,1,29.25,8.134v2.6A.977.977,0,0,1,28.273,11.715ZM3.2,9.762H27.3V8.134a2.934,2.934,0,0,0-2.93-2.93H6.134A2.933,2.933,0,0,0,3.2,8.134Z" transform="translate(0 0.605)" fill="#1b9c5d"/>
      <path id="Path_3156-6" data-name="Path 3156" d="M16.227,8.413a.977.977,0,0,1-.977-.977V2.227a.977.977,0,1,1,1.953,0V7.436A.977.977,0,0,1,16.227,8.413Z" transform="translate(4.233)" fill="#1b9c5d"/>
      <path id="Path_3157-6" data-name="Path 3157" d="M8.227,8.413a.977.977,0,0,1-.977-.977V2.227a.977.977,0,1,1,1.953,0V7.436A.977.977,0,0,1,8.227,8.413Z" transform="translate(1.814)" fill="#1b9c5d"/>
      <path id="Path_3158-6" data-name="Path 3158" d="M11.826,19.407a.969.969,0,0,1-.69-.287l-2.6-2.6a.977.977,0,0,1,1.38-1.38l1.914,1.913,4.519-4.518a.977.977,0,0,1,1.38,1.38l-5.209,5.209a.969.969,0,0,1-.69.287Z" transform="translate(2.122 3.331)" fill="#1b9c5d"/>
    </g>
    <g id="Layer_2-7" data-name="Layer 2" transform="translate(1647.75 872.185)">
      <path id="Path_3154-7" data-name="Path 3154" d="M24.366,28.645H6.134A4.889,4.889,0,0,1,1.25,23.762V8.134A4.889,4.889,0,0,1,6.134,3.25H24.366A4.89,4.89,0,0,1,29.25,8.134V23.762a4.89,4.89,0,0,1-4.884,4.884ZM6.134,5.2A2.933,2.933,0,0,0,3.2,8.134V23.762a2.933,2.933,0,0,0,2.93,2.93H24.366a2.934,2.934,0,0,0,2.93-2.93V8.134a2.934,2.934,0,0,0-2.93-2.93Z" transform="translate(0 0.605)" fill="#1b9c5d"/>
      <path id="Path_3155-7" data-name="Path 3155" d="M28.273,11.715H2.227a.977.977,0,0,1-.977-.977v-2.6A4.889,4.889,0,0,1,6.134,3.25H24.366A4.89,4.89,0,0,1,29.25,8.134v2.6A.977.977,0,0,1,28.273,11.715ZM3.2,9.762H27.3V8.134a2.934,2.934,0,0,0-2.93-2.93H6.134A2.933,2.933,0,0,0,3.2,8.134Z" transform="translate(0 0.605)" fill="#1b9c5d"/>
      <path id="Path_3156-7" data-name="Path 3156" d="M16.227,8.413a.977.977,0,0,1-.977-.977V2.227a.977.977,0,1,1,1.953,0V7.436A.977.977,0,0,1,16.227,8.413Z" transform="translate(4.233)" fill="#1b9c5d"/>
      <path id="Path_3157-7" data-name="Path 3157" d="M8.227,8.413a.977.977,0,0,1-.977-.977V2.227a.977.977,0,1,1,1.953,0V7.436A.977.977,0,0,1,8.227,8.413Z" transform="translate(1.814)" fill="#1b9c5d"/>
      <path id="Path_3158-7" data-name="Path 3158" d="M11.826,19.407a.969.969,0,0,1-.69-.287l-2.6-2.6a.977.977,0,0,1,1.38-1.38l1.914,1.913,4.519-4.518a.977.977,0,0,1,1.38,1.38l-5.209,5.209a.969.969,0,0,1-.69.287Z" transform="translate(2.122 3.331)" fill="#1b9c5d"/>
    </g>
    <g id="Layer_2-8" data-name="Layer 2" transform="translate(1647.75 935.185)">
      <path id="Path_3154-8" data-name="Path 3154" d="M24.366,28.645H6.134A4.889,4.889,0,0,1,1.25,23.762V8.134A4.889,4.889,0,0,1,6.134,3.25H24.366A4.89,4.89,0,0,1,29.25,8.134V23.762a4.89,4.89,0,0,1-4.884,4.884ZM6.134,5.2A2.933,2.933,0,0,0,3.2,8.134V23.762a2.933,2.933,0,0,0,2.93,2.93H24.366a2.934,2.934,0,0,0,2.93-2.93V8.134a2.934,2.934,0,0,0-2.93-2.93Z" transform="translate(0 0.605)" fill="#1b9c5d"/>
      <path id="Path_3155-8" data-name="Path 3155" d="M28.273,11.715H2.227a.977.977,0,0,1-.977-.977v-2.6A4.889,4.889,0,0,1,6.134,3.25H24.366A4.89,4.89,0,0,1,29.25,8.134v2.6A.977.977,0,0,1,28.273,11.715ZM3.2,9.762H27.3V8.134a2.934,2.934,0,0,0-2.93-2.93H6.134A2.933,2.933,0,0,0,3.2,8.134Z" transform="translate(0 0.605)" fill="#1b9c5d"/>
      <path id="Path_3156-8" data-name="Path 3156" d="M16.227,8.413a.977.977,0,0,1-.977-.977V2.227a.977.977,0,1,1,1.953,0V7.436A.977.977,0,0,1,16.227,8.413Z" transform="translate(4.233)" fill="#1b9c5d"/>
      <path id="Path_3157-8" data-name="Path 3157" d="M8.227,8.413a.977.977,0,0,1-.977-.977V2.227a.977.977,0,1,1,1.953,0V7.436A.977.977,0,0,1,8.227,8.413Z" transform="translate(1.814)" fill="#1b9c5d"/>
      <path id="Path_3158-8" data-name="Path 3158" d="M11.826,19.407a.969.969,0,0,1-.69-.287l-2.6-2.6a.977.977,0,0,1,1.38-1.38l1.914,1.913,4.519-4.518a.977.977,0,0,1,1.38,1.38l-5.209,5.209a.969.969,0,0,1-.69.287Z" transform="translate(2.122 3.331)" fill="#1b9c5d"/>
    </g>
    <g id="Layer_2-9" data-name="Layer 2" transform="translate(1647.75 998.185)">
      <path id="Path_3154-9" data-name="Path 3154" d="M24.366,28.645H6.134A4.889,4.889,0,0,1,1.25,23.762V8.134A4.889,4.889,0,0,1,6.134,3.25H24.366A4.89,4.89,0,0,1,29.25,8.134V23.762a4.89,4.89,0,0,1-4.884,4.884ZM6.134,5.2A2.933,2.933,0,0,0,3.2,8.134V23.762a2.933,2.933,0,0,0,2.93,2.93H24.366a2.934,2.934,0,0,0,2.93-2.93V8.134a2.934,2.934,0,0,0-2.93-2.93Z" transform="translate(0 0.605)" fill="#1b9c5d"/>
      <path id="Path_3155-9" data-name="Path 3155" d="M28.273,11.715H2.227a.977.977,0,0,1-.977-.977v-2.6A4.889,4.889,0,0,1,6.134,3.25H24.366A4.89,4.89,0,0,1,29.25,8.134v2.6A.977.977,0,0,1,28.273,11.715ZM3.2,9.762H27.3V8.134a2.934,2.934,0,0,0-2.93-2.93H6.134A2.933,2.933,0,0,0,3.2,8.134Z" transform="translate(0 0.605)" fill="#1b9c5d"/>
      <path id="Path_3156-9" data-name="Path 3156" d="M16.227,8.413a.977.977,0,0,1-.977-.977V2.227a.977.977,0,1,1,1.953,0V7.436A.977.977,0,0,1,16.227,8.413Z" transform="translate(4.233)" fill="#1b9c5d"/>
      <path id="Path_3157-9" data-name="Path 3157" d="M8.227,8.413a.977.977,0,0,1-.977-.977V2.227a.977.977,0,1,1,1.953,0V7.436A.977.977,0,0,1,8.227,8.413Z" transform="translate(1.814)" fill="#1b9c5d"/>
      <path id="Path_3158-9" data-name="Path 3158" d="M11.826,19.407a.969.969,0,0,1-.69-.287l-2.6-2.6a.977.977,0,0,1,1.38-1.38l1.914,1.913,4.519-4.518a.977.977,0,0,1,1.38,1.38l-5.209,5.209a.969.969,0,0,1-.69.287Z" transform="translate(2.122 3.331)" fill="#1b9c5d"/>
    </g>
  </g>
</svg>
