<svg xmlns="http://www.w3.org/2000/svg" width="24.7" height="24.699" viewBox="0 0 24.7 24.699">
  <path id="Union_20" data-name="Union 20" d="M12859.669,20110.352a12.35,12.35,0,1,1,12.353,12.348A12.364,12.364,0,0,1,12859.669,20110.352Zm1.545,0a10.8,10.8,0,1,0,10.808-10.807A10.816,10.816,0,0,0,12861.214,20110.352Zm10.035,5.4v-4.631h-4.631a.771.771,0,1,1,0-1.541h4.631v-4.635a.772.772,0,0,1,1.545,0v4.635h4.626a.771.771,0,1,1,0,1.541h-4.626v4.631a.772.772,0,1,1-1.545,0Z" transform="translate(-12859.669 -20098)" fill="#d9d9d9"/>
</svg>
