<svg xmlns="http://www.w3.org/2000/svg" width="24.695" height="24.707" viewBox="0 0 24.695 24.707">
  <path id="Union_18" data-name="Union 18" d="M12859.674,20189.352a12.348,12.348,0,1,1,12.342,12.352A12.361,12.361,0,0,1,12859.674,20189.352Zm1.539,0a10.808,10.808,0,1,0,10.8-10.8A10.813,10.813,0,0,0,12861.213,20189.352Zm10.033,5.4v-4.629h-4.631a.771.771,0,0,1,0-1.543h4.631v-4.629a.771.771,0,1,1,1.541,0v4.629h4.641a.771.771,0,0,1,0,1.543h-4.641v4.629a.771.771,0,1,1-1.541,0Z" transform="translate(-12859.674 -20176.996)" fill="#979797"/>
</svg>
