<svg xmlns="http://www.w3.org/2000/svg" width="23.905" height="28.869" viewBox="0 0 23.905 28.869">
  <path id="Union_40" data-name="Union 40" d="M11392.6,6504.967a2.493,2.493,0,0,1-2.6-2.366v-23.64a2.493,2.493,0,0,1,2.6-2.363h13.652a.694.694,0,0,1,.461.172l6.5,5.912a.567.567,0,0,1,.189.418v19.5a2.494,2.494,0,0,1-2.6,2.366Zm-1.3-26.006v23.64a1.247,1.247,0,0,0,1.3,1.183h18.2a1.247,1.247,0,0,0,1.3-1.183V6483.69h-3.9a2.492,2.492,0,0,1-2.6-2.363v-3.546h-13A1.247,1.247,0,0,0,11391.3,6478.961Zm15.6,2.366a1.246,1.246,0,0,0,1.3,1.18h2.982l-4.282-3.893Zm-13,17.874c0-1.283,1.372-1.934,3.446-2.916.455-.215.947-.447,1.463-.708.144-.071.293-.14.447-.209q.28-.628.527-1.363c.341-1.023.645-1.931.9-2.718a6.226,6.226,0,0,1-1.584-3.515c0-2.2,1.06-2.664,1.95-2.664,1.169,0,1.948.441,1.948,2.6a14.505,14.505,0,0,1-.859,3.308q.576.688,1.32,1.432a18.272,18.272,0,0,0,1.556,1.341,16.633,16.633,0,0,1,1.885-.232c.845,0,2.6,0,2.6,1.539,0,.782-.338,1.713-1.951,1.713a7.441,7.441,0,0,1-2.87-1.636,25.626,25.626,0,0,0-4.465,1.2c-1.332,2.721-3.157,4.334-4.366,4.334C11394.914,6500.71,11393.9,6500.134,11393.9,6499.2Zm4-1.742c-1.329.63-2.7,1.281-2.7,1.742a1.013,1.013,0,0,0,.649.209c.37,0,1.335-.656,2.313-2.071Q11398.03,6497.4,11397.905,6497.459Zm8.6-2.569a4.8,4.8,0,0,0,1.094.625c.6-.006.6-.126.6-.418-.065-.144-.338-.238-1.3-.238C11406.827,6494.858,11406.692,6494.87,11406.507,6494.89Zm-5.488-.475c-.04.117-.077.232-.12.343.816-.258,1.67-.475,2.472-.65-.4-.344-.705-.616-.828-.739q-.467-.468-.873-.914C11401.477,6493.042,11401.259,6493.692,11401.019,6494.415Zm-.616-6.643a4.01,4.01,0,0,0,.782,1.968,10.439,10.439,0,0,0,.519-2.031c0-1.3-.192-1.3-.65-1.3C11400.823,6486.408,11400.4,6486.408,11400.4,6487.772Z" transform="translate(-11389.749 -6476.348)" fill="#0e2d49" stroke="#0f2e4b" stroke-width="0.5"/>
</svg>
