<svg xmlns="http://www.w3.org/2000/svg" width="29.268" height="30.148" viewBox="0 0 29.268 30.148">
  <g id="Union_77" data-name="Union 77" transform="translate(-14623.25 10743.446)" fill="#284866">
    <path d="M 14643.6484375 -10713.7978515625 L 14632.119140625 -10713.7978515625 C 14630.0087890625 -10713.81640625 14628.248046875 -10715.4580078125 14628.1162109375 -10717.5341796875 L 14626.8173828125 -10736.8505859375 L 14626.7861328125 -10737.3173828125 L 14626.318359375 -10737.3173828125 L 14624.37890625 -10737.3173828125 C 14624.0263671875 -10737.3173828125 14623.75 -10737.5830078125 14623.75 -10737.9228515625 C 14623.75 -10738.263671875 14624.0263671875 -10738.5302734375 14624.37890625 -10738.5302734375 L 14627.37890625 -10738.5302734375 L 14632.2578125 -10738.5302734375 L 14632.7578125 -10738.5302734375 L 14632.7578125 -10739.0302734375 L 14632.7578125 -10740.5615234375 C 14632.791015625 -10741.8564453125 14633.857421875 -10742.90234375 14635.189453125 -10742.9462890625 L 14640.580078125 -10742.9462890625 C 14641.943359375 -10742.90234375 14643.009765625 -10741.8251953125 14643.009765625 -10740.4931640625 L 14643.009765625 -10739.0302734375 L 14643.009765625 -10738.5302734375 L 14643.509765625 -10738.5302734375 L 14648.390625 -10738.5302734375 L 14651.388671875 -10738.5302734375 C 14651.7412109375 -10738.5302734375 14652.017578125 -10738.263671875 14652.017578125 -10737.9228515625 C 14652.017578125 -10737.5830078125 14651.7412109375 -10737.3173828125 14651.388671875 -10737.3173828125 L 14649.443359375 -10737.3173828125 L 14648.974609375 -10737.3173828125 L 14648.9443359375 -10736.849609375 L 14647.7021484375 -10717.53515625 C 14647.5810546875 -10715.4384765625 14645.80078125 -10713.7978515625 14643.6484375 -10713.7978515625 Z M 14628.115234375 -10737.3173828125 L 14628.1474609375 -10736.787109375 L 14629.2998046875 -10717.60546875 C 14629.392578125 -10716.142578125 14630.630859375 -10714.9970703125 14632.119140625 -10714.9970703125 L 14643.6484375 -10714.9970703125 L 14643.6513671875 -10714.9970703125 L 14643.654296875 -10714.9970703125 C 14645.125 -10715.013671875 14646.361328125 -10716.15625 14646.4697265625 -10717.5986328125 L 14646.4697265625 -10717.6015625 L 14646.4697265625 -10717.603515625 L 14647.6865234375 -10736.72265625 L 14647.7197265625 -10737.2529296875 L 14647.189453125 -10737.2548828125 L 14631.736328125 -10737.3173828125 L 14628.646484375 -10737.3173828125 L 14628.115234375 -10737.3173828125 Z M 14635.181640625 -10741.6708984375 C 14634.53125 -10741.6708984375 14634.001953125 -10741.142578125 14634.001953125 -10740.4931640625 L 14634.001953125 -10739.0302734375 L 14634.001953125 -10738.5302734375 L 14634.501953125 -10738.5302734375 L 14641.265625 -10738.5302734375 L 14641.765625 -10738.5302734375 L 14641.765625 -10739.0302734375 L 14641.765625 -10740.4931640625 C 14641.765625 -10741.142578125 14641.2373046875 -10741.6708984375 14640.587890625 -10741.6708984375 L 14635.181640625 -10741.6708984375 Z M 14642.380859375 -10719.6728515625 C 14642.0419921875 -10719.6728515625 14641.765625 -10719.939453125 14641.765625 -10720.2666015625 L 14641.765625 -10732.0341796875 C 14641.765625 -10732.375 14642.0361328125 -10732.6416015625 14642.380859375 -10732.6416015625 C 14642.7333984375 -10732.6416015625 14643.009765625 -10732.375 14643.009765625 -10732.0341796875 L 14643.009765625 -10720.2666015625 C 14643.009765625 -10719.939453125 14642.7275390625 -10719.6728515625 14642.380859375 -10719.6728515625 Z M 14637.888671875 -10719.6728515625 C 14637.5419921875 -10719.6728515625 14637.259765625 -10719.939453125 14637.259765625 -10720.2666015625 L 14637.259765625 -10732.0341796875 C 14637.259765625 -10732.375 14637.5361328125 -10732.6416015625 14637.888671875 -10732.6416015625 C 14638.23046875 -10732.6416015625 14638.5078125 -10732.369140625 14638.5078125 -10732.0341796875 L 14638.5078125 -10720.2666015625 C 14638.5078125 -10719.9443359375 14638.224609375 -10719.6728515625 14637.888671875 -10719.6728515625 Z M 14633.38671875 -10719.6728515625 C 14633.0400390625 -10719.6728515625 14632.7578125 -10719.939453125 14632.7578125 -10720.2666015625 L 14632.7578125 -10732.0341796875 C 14632.7578125 -10732.375 14633.0341796875 -10732.6416015625 14633.38671875 -10732.6416015625 C 14633.7314453125 -10732.6416015625 14634.001953125 -10732.375 14634.001953125 -10732.0341796875 L 14634.001953125 -10720.2666015625 C 14634.001953125 -10719.939453125 14633.7255859375 -10719.6728515625 14633.38671875 -10719.6728515625 Z" stroke="none"/>
    <path d="M 14643.6484375 -10714.2978515625 C 14645.5361328125 -10714.2978515625 14647.0966796875 -10715.7314453125 14647.203125 -10717.560546875 L 14647.203125 -10717.5673828125 L 14648.505859375 -10737.8173828125 L 14651.388671875 -10737.8173828125 C 14651.462890625 -10737.8173828125 14651.517578125 -10737.861328125 14651.517578125 -10737.9228515625 C 14651.517578125 -10737.9970703125 14651.451171875 -10738.0302734375 14651.388671875 -10738.0302734375 L 14642.509765625 -10738.0302734375 L 14642.509765625 -10740.4931640625 C 14642.509765625 -10741.5517578125 14641.6591796875 -10742.4072265625 14640.5712890625 -10742.4462890625 L 14635.1982421875 -10742.4462890625 C 14634.13671875 -10742.4072265625 14633.2880859375 -10741.5791015625 14633.2578125 -10740.5546875 L 14633.2578125 -10738.0302734375 L 14624.37890625 -10738.0302734375 C 14624.31640625 -10738.0302734375 14624.25 -10737.9970703125 14624.25 -10737.9228515625 C 14624.25 -10737.861328125 14624.3046875 -10737.8173828125 14624.37890625 -10737.8173828125 L 14627.2529296875 -10737.8173828125 L 14627.31640625 -10736.884765625 L 14628.615234375 -10717.56640625 C 14628.73046875 -10715.751953125 14630.271484375 -10714.31640625 14632.1240234375 -10714.2978515625 L 14643.6484375 -10714.2978515625 M 14627.5849609375 -10737.8173828125 L 14631.73828125 -10737.8173828125 L 14648.2529296875 -10737.7509765625 L 14646.9677734375 -10717.5615234375 C 14646.8408203125 -10715.8623046875 14645.3876953125 -10714.5166015625 14643.66015625 -10714.4970703125 L 14632.119140625 -10714.4970703125 C 14630.3671875 -10714.4970703125 14628.91015625 -10715.84765625 14628.80078125 -10717.576171875 L 14627.5849609375 -10737.8173828125 M 14635.181640625 -10742.1708984375 L 14640.587890625 -10742.1708984375 C 14641.5126953125 -10742.1708984375 14642.265625 -10741.41796875 14642.265625 -10740.4931640625 L 14642.265625 -10738.0302734375 L 14633.501953125 -10738.0302734375 L 14633.501953125 -10740.4931640625 C 14633.501953125 -10741.41796875 14634.255859375 -10742.1708984375 14635.181640625 -10742.1708984375 M 14642.380859375 -10720.1728515625 C 14642.46484375 -10720.1728515625 14642.509765625 -10720.2275390625 14642.509765625 -10720.2666015625 L 14642.509765625 -10732.0341796875 C 14642.509765625 -10732.1083984375 14642.443359375 -10732.1416015625 14642.380859375 -10732.1416015625 C 14642.3154296875 -10732.1416015625 14642.265625 -10732.095703125 14642.265625 -10732.0341796875 L 14642.265625 -10720.2666015625 C 14642.265625 -10720.22265625 14642.314453125 -10720.1728515625 14642.380859375 -10720.1728515625 M 14637.888671875 -10720.1728515625 C 14637.955078125 -10720.1728515625 14638.0078125 -10720.224609375 14638.0078125 -10720.2666015625 L 14638.0078125 -10732.0341796875 C 14638.0078125 -10732.1015625 14637.947265625 -10732.1416015625 14637.888671875 -10732.1416015625 C 14637.82421875 -10732.1416015625 14637.759765625 -10732.1044921875 14637.759765625 -10732.0341796875 L 14637.759765625 -10720.2666015625 C 14637.759765625 -10720.2275390625 14637.80859375 -10720.1728515625 14637.888671875 -10720.1728515625 M 14633.38671875 -10720.1728515625 C 14633.453125 -10720.1728515625 14633.501953125 -10720.22265625 14633.501953125 -10720.2666015625 L 14633.501953125 -10732.0341796875 C 14633.501953125 -10732.095703125 14633.4521484375 -10732.1416015625 14633.38671875 -10732.1416015625 C 14633.32421875 -10732.1416015625 14633.2578125 -10732.1083984375 14633.2578125 -10732.0341796875 L 14633.2578125 -10720.2666015625 C 14633.2578125 -10720.2275390625 14633.302734375 -10720.1728515625 14633.38671875 -10720.1728515625 M 14643.6484375 -10713.2978515625 L 14632.119140625 -10713.2978515625 C 14629.72265625 -10713.3193359375 14627.765625 -10715.1669921875 14627.6171875 -10717.5029296875 L 14626.318359375 -10736.8173828125 L 14624.37890625 -10736.8173828125 C 14623.75 -10736.8173828125 14623.25 -10737.3095703125 14623.25 -10737.9228515625 C 14623.25 -10738.5400390625 14623.75 -10739.0302734375 14624.37890625 -10739.0302734375 L 14632.2578125 -10739.0302734375 L 14632.2578125 -10740.5673828125 C 14632.294921875 -10742.1416015625 14633.587890625 -10743.3974609375 14635.181640625 -10743.4462890625 L 14640.587890625 -10743.4462890625 C 14642.21875 -10743.3974609375 14643.509765625 -10742.1064453125 14643.509765625 -10740.4931640625 L 14643.509765625 -10739.0302734375 L 14651.388671875 -10739.0302734375 C 14652.017578125 -10739.0302734375 14652.517578125 -10738.5400390625 14652.517578125 -10737.9228515625 C 14652.517578125 -10737.3095703125 14652.017578125 -10736.8173828125 14651.388671875 -10736.8173828125 L 14649.443359375 -10736.8173828125 L 14648.201171875 -10717.5029296875 C 14648.064453125 -10715.1396484375 14646.056640625 -10713.2978515625 14643.6484375 -10713.2978515625 Z M 14628.646484375 -10736.8173828125 L 14629.798828125 -10717.6357421875 C 14629.875 -10716.4326171875 14630.890625 -10715.4970703125 14632.119140625 -10715.4970703125 L 14643.6484375 -10715.4970703125 C 14644.86328125 -10715.5107421875 14645.880859375 -10716.4326171875 14645.970703125 -10717.6357421875 L 14647.1875 -10736.7548828125 L 14631.734375 -10736.8173828125 L 14628.646484375 -10736.8173828125 Z M 14635.181640625 -10741.1708984375 C 14634.8046875 -10741.1708984375 14634.501953125 -10740.8623046875 14634.501953125 -10740.4931640625 L 14634.501953125 -10739.0302734375 L 14641.265625 -10739.0302734375 L 14641.265625 -10740.4931640625 C 14641.265625 -10740.8623046875 14640.96484375 -10741.1708984375 14640.587890625 -10741.1708984375 L 14635.181640625 -10741.1708984375 Z M 14642.380859375 -10719.1728515625 C 14641.765625 -10719.1728515625 14641.265625 -10719.6669921875 14641.265625 -10720.2666015625 L 14641.265625 -10732.0341796875 C 14641.265625 -10732.6513671875 14641.765625 -10733.1416015625 14642.380859375 -10733.1416015625 C 14643.009765625 -10733.1416015625 14643.509765625 -10732.6513671875 14643.509765625 -10732.0341796875 L 14643.509765625 -10720.2666015625 C 14643.509765625 -10719.6669921875 14643.009765625 -10719.1728515625 14642.380859375 -10719.1728515625 Z M 14637.888671875 -10719.1728515625 C 14637.263671875 -10719.1728515625 14636.759765625 -10719.6669921875 14636.759765625 -10720.2666015625 L 14636.759765625 -10732.0341796875 C 14636.759765625 -10732.6513671875 14637.263671875 -10733.1416015625 14637.888671875 -10733.1416015625 C 14638.50390625 -10733.1416015625 14639.0078125 -10732.6513671875 14639.0078125 -10732.0341796875 L 14639.0078125 -10720.2666015625 C 14639.0078125 -10719.6669921875 14638.50390625 -10719.1728515625 14637.888671875 -10719.1728515625 Z M 14633.38671875 -10719.1728515625 C 14632.7578125 -10719.1728515625 14632.2578125 -10719.6669921875 14632.2578125 -10720.2666015625 L 14632.2578125 -10732.0341796875 C 14632.2578125 -10732.6513671875 14632.7578125 -10733.1416015625 14633.38671875 -10733.1416015625 C 14634.001953125 -10733.1416015625 14634.501953125 -10732.6513671875 14634.501953125 -10732.0341796875 L 14634.501953125 -10720.2666015625 C 14634.501953125 -10719.6669921875 14634.001953125 -10719.1728515625 14633.38671875 -10719.1728515625 Z" stroke="none" fill="#284866"/>
  </g>
</svg>
