<svg xmlns="http://www.w3.org/2000/svg" width="27.563" height="27.594" viewBox="0 0 27.563 27.594">
  <g id="edit" transform="translate(-10.634 -3.9)">
    <g id="Group_1352" data-name="Group 1352" transform="translate(10.736 4)">
      <g id="Group_1351" data-name="Group 1351" transform="translate(0 0)">
        <path id="Path_3346" data-name="Path 3346" d="M26.909,27.394h.185l8.931-1.943a.879.879,0,0,0,.463-.231L51.618,10.088A5.831,5.831,0,0,0,53.33,5.924a6.015,6.015,0,0,0-1.712-4.211A5.83,5.83,0,0,0,47.454,0a5.692,5.692,0,0,0-4.165,1.758L28.2,16.89a.833.833,0,0,0-.278.416l-1.943,8.931a1.018,1.018,0,0,0,.278.879A.925.925,0,0,0,26.909,27.394ZM47.454,1.852A4.026,4.026,0,0,1,51.48,5.877q0,.023,0,.046a3.887,3.887,0,0,1-1.157,2.823L44.631,3.008A3.979,3.979,0,0,1,47.454,1.852Zm-4.118,2.5,5.692,5.692L35.839,23.183l-5.692-5.645ZM29.407,19.389l4.581,4.581-5.877,1.3Z" transform="translate(-25.97 0)" fill="#284866" stroke="#284866" stroke-width="0.2"/>
      </g>
    </g>
  </g>
</svg>
