<svg xmlns="http://www.w3.org/2000/svg" width="16.9" height="16.896" viewBox="0 0 16.9 16.896">
  <g id="add_6_" data-name="add (6)" transform="translate(0 -0.002)">
    <path id="Union_70" data-name="Union 70" d="M14852.1-10713.06a8.457,8.457,0,0,1,8.448-8.448,8.46,8.46,0,0,1,8.452,8.448,8.46,8.46,0,0,1-8.452,8.448A8.457,8.457,0,0,1,14852.1-10713.06Zm1.31,0a7.149,7.149,0,0,0,7.139,7.142,7.15,7.15,0,0,0,7.143-7.142,7.152,7.152,0,0,0-7.143-7.143A7.149,7.149,0,0,0,14853.409-10713.06Zm6.485,3.213v-2.616h-2.619a.655.655,0,0,1-.653-.656.651.651,0,0,1,.653-.653h2.619v-2.62a.651.651,0,0,1,.653-.652.655.655,0,0,1,.657.652v2.62h2.615a.655.655,0,0,1,.657.653.658.658,0,0,1-.657.656h-2.615v2.616a.658.658,0,0,1-.657.656A.655.655,0,0,1,14859.895-10709.847Z" transform="translate(-14852.1 10721.51)" fill="#38a971"/>
  </g>
</svg>
