<svg xmlns="http://www.w3.org/2000/svg" width="17.268" height="18.148" viewBox="0 0 17.268 18.148">
  <g id="Union_74" data-name="Union 74" transform="translate(-14623.25 10743.445)" fill="#fff">
    <path d="M 14635.28515625 -10725.796875 L 14628.482421875 -10725.796875 C 14627.3466796875 -10725.8076171875 14626.396484375 -10726.7138671875 14626.3251953125 -10727.859375 L 14625.5595703125 -10739.48828125 L 14625.5283203125 -10739.955078125 L 14625.060546875 -10739.955078125 L 14623.916015625 -10739.955078125 C 14623.8212890625 -10739.955078125 14623.75 -10740.0263671875 14623.75 -10740.12109375 C 14623.75 -10740.2158203125 14623.8212890625 -10740.287109375 14623.916015625 -10740.287109375 L 14625.685546875 -10740.287109375 L 14628.564453125 -10740.287109375 L 14629.064453125 -10740.287109375 L 14629.064453125 -10740.787109375 L 14629.064453125 -10741.70703125 C 14629.08203125 -10742.3779296875 14629.6220703125 -10742.9208984375 14630.2978515625 -10742.9453125 L 14633.470703125 -10742.9453125 C 14634.162109375 -10742.9208984375 14634.703125 -10742.361328125 14634.703125 -10741.66796875 L 14634.703125 -10740.787109375 L 14634.703125 -10740.287109375 L 14635.203125 -10740.287109375 L 14638.08203125 -10740.287109375 L 14639.8515625 -10740.287109375 C 14639.9462890625 -10740.287109375 14640.017578125 -10740.2158203125 14640.017578125 -10740.12109375 C 14640.017578125 -10740.0263671875 14639.9462890625 -10739.955078125 14639.8515625 -10739.955078125 L 14638.703125 -10739.955078125 L 14638.2333984375 -10739.955078125 L 14638.2041015625 -10739.486328125 L 14637.4716796875 -10727.859375 C 14637.40625 -10726.701171875 14636.4462890625 -10725.796875 14635.28515625 -10725.796875 Z M 14625.9033203125 -10739.955078125 L 14625.9345703125 -10739.42578125 L 14626.6142578125 -10727.87890625 C 14626.6748046875 -10726.892578125 14627.49609375 -10726.12109375 14628.482421875 -10726.12109375 L 14635.28515625 -10726.12109375 L 14635.2880859375 -10726.12109375 L 14635.291015625 -10726.12109375 C 14636.2646484375 -10726.1318359375 14637.08203125 -10726.900390625 14637.1533203125 -10727.8720703125 L 14637.1533203125 -10727.8740234375 L 14637.1533203125 -10727.876953125 L 14637.8720703125 -10739.38671875 L 14637.9052734375 -10739.916015625 L 14637.375 -10739.91796875 L 14628.2578125 -10739.955078125 L 14626.43359375 -10739.955078125 L 14625.9033203125 -10739.955078125 Z M 14630.2890625 -10742.576171875 C 14629.79296875 -10742.576171875 14629.388671875 -10742.1689453125 14629.388671875 -10741.66796875 L 14629.388671875 -10740.787109375 L 14629.388671875 -10740.287109375 L 14629.888671875 -10740.287109375 L 14633.87890625 -10740.287109375 L 14634.37890625 -10740.287109375 L 14634.37890625 -10740.787109375 L 14634.37890625 -10741.66796875 C 14634.37890625 -10742.1689453125 14633.974609375 -10742.576171875 14633.478515625 -10742.576171875 L 14630.2890625 -10742.576171875 Z M 14634.537109375 -10729.333984375 C 14634.451171875 -10729.333984375 14634.37890625 -10729.40625 14634.37890625 -10729.4921875 L 14634.37890625 -10736.576171875 C 14634.37890625 -10736.6689453125 14634.4482421875 -10736.7421875 14634.537109375 -10736.7421875 C 14634.6318359375 -10736.7421875 14634.703125 -10736.6708984375 14634.703125 -10736.576171875 L 14634.703125 -10729.4921875 C 14634.703125 -10729.4052734375 14634.62890625 -10729.333984375 14634.537109375 -10729.333984375 Z M 14631.88671875 -10729.333984375 C 14631.794921875 -10729.333984375 14631.720703125 -10729.4052734375 14631.720703125 -10729.4921875 L 14631.720703125 -10736.576171875 C 14631.720703125 -10736.6708984375 14631.7919921875 -10736.7421875 14631.88671875 -10736.7421875 C 14631.9765625 -10736.7421875 14632.046875 -10736.6689453125 14632.046875 -10736.576171875 L 14632.046875 -10729.4921875 C 14632.046875 -10729.40625 14631.9736328125 -10729.333984375 14631.88671875 -10729.333984375 Z M 14629.23046875 -10729.333984375 C 14629.138671875 -10729.333984375 14629.064453125 -10729.4052734375 14629.064453125 -10729.4921875 L 14629.064453125 -10736.576171875 C 14629.064453125 -10736.6708984375 14629.1357421875 -10736.7421875 14629.23046875 -10736.7421875 C 14629.3193359375 -10736.7421875 14629.388671875 -10736.6689453125 14629.388671875 -10736.576171875 L 14629.388671875 -10729.4921875 C 14629.388671875 -10729.40625 14629.31640625 -10729.333984375 14629.23046875 -10729.333984375 Z" stroke="none"/>
    <path d="M 14635.28515625 -10725.296875 L 14628.482421875 -10725.296875 C 14627.068359375 -10725.310546875 14625.9140625 -10726.421875 14625.826171875 -10727.828125 L 14625.060546875 -10739.455078125 L 14623.916015625 -10739.455078125 C 14623.544921875 -10739.455078125 14623.25 -10739.751953125 14623.25 -10740.12109375 C 14623.25 -10740.4921875 14623.544921875 -10740.787109375 14623.916015625 -10740.787109375 L 14628.564453125 -10740.787109375 L 14628.564453125 -10741.712890625 C 14628.5859375 -10742.66015625 14629.349609375 -10743.416015625 14630.2890625 -10743.4453125 L 14633.478515625 -10743.4453125 C 14634.44140625 -10743.416015625 14635.203125 -10742.638671875 14635.203125 -10741.66796875 L 14635.203125 -10740.787109375 L 14639.8515625 -10740.787109375 C 14640.22265625 -10740.787109375 14640.517578125 -10740.4921875 14640.517578125 -10740.12109375 C 14640.517578125 -10739.751953125 14640.22265625 -10739.455078125 14639.8515625 -10739.455078125 L 14638.703125 -10739.455078125 L 14637.970703125 -10727.828125 C 14637.890625 -10726.40625 14636.705078125 -10725.296875 14635.28515625 -10725.296875 Z M 14626.43359375 -10739.455078125 L 14627.11328125 -10727.908203125 C 14627.158203125 -10727.18359375 14627.7578125 -10726.62109375 14628.482421875 -10726.62109375 L 14635.28515625 -10726.62109375 C 14636.001953125 -10726.62890625 14636.6015625 -10727.18359375 14636.654296875 -10727.908203125 L 14637.373046875 -10739.41796875 L 14628.255859375 -10739.455078125 L 14626.43359375 -10739.455078125 Z M 14630.2890625 -10742.076171875 C 14630.06640625 -10742.076171875 14629.888671875 -10741.890625 14629.888671875 -10741.66796875 L 14629.888671875 -10740.787109375 L 14633.87890625 -10740.787109375 L 14633.87890625 -10741.66796875 C 14633.87890625 -10741.890625 14633.701171875 -10742.076171875 14633.478515625 -10742.076171875 L 14630.2890625 -10742.076171875 Z M 14634.537109375 -10728.833984375 C 14634.173828125 -10728.833984375 14633.87890625 -10729.130859375 14633.87890625 -10729.4921875 L 14633.87890625 -10736.576171875 C 14633.87890625 -10736.947265625 14634.173828125 -10737.2421875 14634.537109375 -10737.2421875 C 14634.908203125 -10737.2421875 14635.203125 -10736.947265625 14635.203125 -10736.576171875 L 14635.203125 -10729.4921875 C 14635.203125 -10729.130859375 14634.908203125 -10728.833984375 14634.537109375 -10728.833984375 Z M 14631.88671875 -10728.833984375 C 14631.517578125 -10728.833984375 14631.220703125 -10729.130859375 14631.220703125 -10729.4921875 L 14631.220703125 -10736.576171875 C 14631.220703125 -10736.947265625 14631.517578125 -10737.2421875 14631.88671875 -10737.2421875 C 14632.25 -10737.2421875 14632.546875 -10736.947265625 14632.546875 -10736.576171875 L 14632.546875 -10729.4921875 C 14632.546875 -10729.130859375 14632.25 -10728.833984375 14631.88671875 -10728.833984375 Z M 14629.23046875 -10728.833984375 C 14628.859375 -10728.833984375 14628.564453125 -10729.130859375 14628.564453125 -10729.4921875 L 14628.564453125 -10736.576171875 C 14628.564453125 -10736.947265625 14628.859375 -10737.2421875 14629.23046875 -10737.2421875 C 14629.59375 -10737.2421875 14629.888671875 -10736.947265625 14629.888671875 -10736.576171875 L 14629.888671875 -10729.4921875 C 14629.888671875 -10729.130859375 14629.59375 -10728.833984375 14629.23046875 -10728.833984375 Z" stroke="none" fill="#38a971"/>
  </g>
</svg>
