<svg xmlns="http://www.w3.org/2000/svg" width="25.943" height="32.776" viewBox="0 0 25.943 32.776">
  <g id="Group_995" data-name="Group 995" transform="translate(-278.592 -412.321)">
    <g id="Group_971" data-name="Group 971" transform="translate(278.692 410.5)">
      <path id="Path_2914" data-name="Path 2914" d="M33.66,7.13a3.948,3.948,0,1,0,3.946,3.947A3.948,3.948,0,0,0,33.66,7.13Zm0,6.683a2.734,2.734,0,1,1,2.733-2.736A2.734,2.734,0,0,1,33.66,13.813Z" transform="translate(-27.402 -5.25)" fill="#595959"/>
      <path id="Path_2915" data-name="Path 2915" d="M77.716,7.13A3.978,3.978,0,1,0,81.7,11.106,3.978,3.978,0,0,0,77.716,7.13Zm0,6.733a2.755,2.755,0,1,1,2.757-2.756A2.755,2.755,0,0,1,77.716,13.863Z" transform="translate(-59.988 -5.309)" fill="#595959"/>
      <path id="Path_2916" data-name="Path 2916" d="M44.293,41.341l-1.037-5.4a5.137,5.137,0,0,0-5.093-4.09H36.777a5.274,5.274,0,0,0-4.209,2.091,3.269,3.269,0,0,0-1.822-.038,2.939,2.939,0,0,0-2.52-1.8H21.743c-1.6,0-3.123,2.168-3.123,4.462v6.868A1.6,1.6,0,0,0,20.25,45a1.7,1.7,0,0,0,.57-.1l-.4,8.754A2.451,2.451,0,0,0,22.1,56.078a2.588,2.588,0,0,0,2.887-.856,2.543,2.543,0,0,0,1.832.989,2.573,2.573,0,0,0,1.972-.693,1.912,1.912,0,0,0,1.29.693,1.952,1.952,0,0,0,1.6-.6,1.928,1.928,0,0,0,1.657.593,1.89,1.89,0,0,0,1.441-.988,1.63,1.63,0,0,0,1.189.967,1.683,1.683,0,0,0,1.492-.423,1.693,1.693,0,0,0,1.725.36,1.6,1.6,0,0,0,1.076-1.351l.711-7.528h1.6a.506.506,0,0,0,.373-.163.47.47,0,0,0,.12-.379l-.306-2.258a2.891,2.891,0,0,0,1.528-3.1ZM31.587,34.752a2.16,2.16,0,1,1-2.236,2.157,2.2,2.2,0,0,1,2.236-2.157ZM34.9,48.118a.373.373,0,0,1-.38.367.488.488,0,0,0-.5.479v5.349a.928.928,0,0,1-1.539.718.875.875,0,0,1-.3-.66V49.378a.5.5,0,0,0-.992,0v4.993a.872.872,0,0,1-.3.66.929.929,0,0,1-1.541-.718V48.964a.47.47,0,0,0-.145-.339.5.5,0,0,0-.351-.14h-.207a.375.375,0,0,1-.38-.367V44.675a3.007,3.007,0,0,1,.111-.818,3.315,3.315,0,0,1,3.636-2.366A3.242,3.242,0,0,1,34.9,44.675Zm2.069,6.507a.647.647,0,0,1-.658.635.657.657,0,0,1-.658-.578l-.51-5.387a1.325,1.325,0,0,0,.748-1.177v-.876h1.077Zm2.307.057a.66.66,0,0,1-1.315-.057V47.242h2.021Zm3.3-11.267-1.565-7.522a.5.5,0,0,0-.584-.375.48.48,0,0,0-.388.564c.014.074.028.137.04.189a.029.029,0,0,0,0,.014c0,.005,0,.014,0,.019a.008.008,0,0,0,0,.005.024.024,0,0,0,0,.014c0,.008,0,.016,0,.025s0,.005,0,.011a.082.082,0,0,0,.006.022c0,.019.009.036.011.057,0,.005,0,.011,0,.016a.029.029,0,0,1,0,.014.117.117,0,0,1,.006.027.01.01,0,0,1,0,.008c.125.6.519,2.5,1.61,7.747l.275,2.034H35.9v-1.61a4.312,4.312,0,0,0-8.619,0v3.444a1.338,1.338,0,0,0,1.083,1.295c.006,5.152-.009,4.9.011,5.092a1.564,1.564,0,0,1-1.736.706,1.5,1.5,0,0,1-1.147-1.443V44.16a.5.5,0,0,0-.992,0v9.616a1.545,1.545,0,0,1-3.087-.074l.465-10.139c0-.03,0-5.571.006-7.251a.5.5,0,0,0-.992,0l-.006,7.2a.632.632,0,0,1-.674.537.625.625,0,0,1-.6-.616V36.561c0-1.853,1.193-3.5,2.131-3.5h6.482a2.006,2.006,0,0,1,1.613,1.237,3.155,3.155,0,0,0-1.281,1.544,3.077,3.077,0,0,0,1.649,3.893,3.288,3.288,0,0,0,4.162-1.238,3.05,3.05,0,0,0-.9-4.114,4.275,4.275,0,0,1,3.313-1.571h1.386a4.159,4.159,0,0,1,4.118,3.307l1.037,5.4A1.933,1.933,0,0,1,42.579,43.415Z" transform="translate(-18.62 -21.76)" fill="#595959" stroke="#595959" stroke-width="0.2"/>
    </g>
  </g>
</svg>
