<svg xmlns="http://www.w3.org/2000/svg" width="60px" height="120px" viewBox="0 0 45.542 45.537">
	<path id="Union_63" data-name="Union 63" d="M4.8,44.537A4.806,4.806,0,0,1,0,39.74V7.594a4.806,4.806,0,0,1,4.8-4.8H8.387V1.3A1.3,1.3,0,1,1,11,1.3V2.793h5.774V1.3a1.307,1.307,0,0,1,2.613,0V2.793h5.774V1.3a1.3,1.3,0,0,1,2.609,0V2.793h5.778V1.3a1.3,1.3,0,1,1,2.609,0V2.793h3.587a4.806,4.806,0,0,1,4.8,4.8V39.74a4.805,4.805,0,0,1-4.8,4.8Zm-2.189-4.8A2.191,2.191,0,0,0,4.8,41.928h34.94a2.191,2.191,0,0,0,2.187-2.188V13.789H2.613Zm0-32.147V11.18H41.929V7.594a2.188,2.188,0,0,0-2.187-2.188H36.155V6.894a1.3,1.3,0,1,1-2.609,0V5.406H27.768V6.894a1.3,1.3,0,0,1-2.609,0V5.406H19.384V6.894a1.307,1.307,0,0,1-2.613,0V5.406H11V6.894a1.3,1.3,0,1,1-2.609,0V5.406H4.8A2.187,2.187,0,0,0,2.613,7.594ZM31.359,37.548a1.3,1.3,0,0,1-1.309-1.3v-5.59a1.3,1.3,0,0,1,1.309-1.3H36.95a1.3,1.3,0,0,1,1.3,1.3v5.59a1.3,1.3,0,0,1-1.3,1.3Zm1.3-2.608h2.982V31.958H32.662ZM19.475,37.548a1.3,1.3,0,0,1-1.3-1.3v-5.59a1.3,1.3,0,0,1,1.3-1.3h5.589a1.3,1.3,0,0,1,1.309,1.3v5.59a1.3,1.3,0,0,1-1.309,1.3Zm1.308-2.608H23.76V31.958H20.782ZM7.595,37.548a1.305,1.305,0,0,1-1.306-1.3v-5.59a1.305,1.305,0,0,1,1.306-1.3h5.591a1.307,1.307,0,0,1,1.308,1.3v5.59a1.307,1.307,0,0,1-1.308,1.3ZM8.9,34.94H11.88V31.958H8.9Zm22.461-8.572a1.3,1.3,0,0,1-1.309-1.3v-5.59a1.305,1.305,0,0,1,1.309-1.3H36.95a1.3,1.3,0,0,1,1.3,1.3v5.59a1.3,1.3,0,0,1-1.3,1.3Zm1.3-2.609h2.982V20.778H32.662ZM7.595,26.368a1.305,1.305,0,0,1-1.306-1.3v-5.59a1.306,1.306,0,0,1,1.306-1.3h5.591a1.307,1.307,0,0,1,1.308,1.3v5.59a1.307,1.307,0,0,1-1.308,1.3Zm1.3-2.609H11.88V20.778H8.9Zm11.464,1.407-1.978-1.973a1.306,1.306,0,0,1,1.846-1.849L21.285,22.4l3.029-3.029a1.3,1.3,0,0,1,1.844,1.845l-3.95,3.951a1.311,1.311,0,0,1-.923.382A1.3,1.3,0,0,1,20.362,25.166Z" transform="translate(0.5 0.5)" fill="#1b9c5d" stroke="#1b9c5d" stroke-width="1" />
</svg>
