<svg id="Group_1404" xmlns="http://www.w3.org/2000/svg" data-name="Group 1404" width="70px" height="120px" viewBox="0 0 51.064 47.231">
	<defs>
		<clipPath id="clip-path">
			<path id="path1062" d="M0-682.665H51.064v47.231H0Z" transform="translate(0 682.665)" />
		</clipPath>
	</defs>
	<g id="g1056">
		<g id="g1058">
			<g id="g1060" clip-path="url(#clip-path)">
				<g id="g1066" transform="translate(4.588 1.577)">
					<path id="path1068" d="M-518.11-71.859c0,33.209-20.944,38.873-20.944,38.873S-560-38.65-560-71.859c10.472,0,20.944-5.341,20.944-5.341S-528.582-71.859-518.11-71.859Z" transform="translate(559.999 77.2)" fill="rgba(0,0,0,0)" stroke="#1b9c5d" stroke-miterlimit="10" stroke-width="3.5" />
				</g>
				<g id="g1070" transform="translate(13.564 9.686)">
					<path id="path1072" d="M-296.063-150.171c0,6.114-5.358,11.07-11.968,11.07S-320-144.057-320-150.171s5.358-11.162,11.968-11.162S-296.063-156.285-296.063-150.171Z" transform="translate(319.999 161.333)" fill="rgba(0,0,0,0)" stroke="#1b9c5d" stroke-miterlimit="10" stroke-width="3.5" />
				</g>
				<g id="g1074" transform="translate(19.548 17.988)">
					<path id="path1076" d="M0-38.474l4.488,4.151,7.48-7.011" transform="translate(0 41.333)" fill="rgba(0,0,0,0)" stroke="#1b9c5d" stroke-miterlimit="10" stroke-width="3.5" />
				</g>
			</g>
		</g>
	</g>
</svg>
