<svg xmlns="http://www.w3.org/2000/svg" width="34.661" height="41" viewBox="0 0 34.661 41">
  <g id="Group_846" data-name="Group 846" transform="translate(-447 -693)">
    <g id="Icon" transform="translate(447 693)">
      <path id="Path_3107" data-name="Path 3107" d="M18.619,1.25A13.16,13.16,0,0,0,5.25,14.176c0,2.418,1.113,5.418,2.733,8.41a82.4,82.4,0,0,0,9.509,13.225,1.527,1.527,0,0,0,2.254,0,82.4,82.4,0,0,0,9.509-13.225c1.62-2.992,2.733-5.992,2.733-8.41A13.16,13.16,0,0,0,18.619,1.25Zm0,2.843a10.25,10.25,0,0,1,10.4,10.083c0,2.778-1.842,6.4-3.969,9.773a83.5,83.5,0,0,1-6.429,8.7,83.5,83.5,0,0,1-6.429-8.7c-2.127-3.375-3.969-6.995-3.969-9.773a10.25,10.25,0,0,1,10.4-10.083Z" transform="translate(-1.289 -1.25)" fill="#d3f4ff" fill-rule="evenodd"/>
      <path id="Path_3108" data-name="Path 3108" d="M14.7,5.25A5.447,5.447,0,1,0,20.143,10.7,5.449,5.449,0,0,0,14.7,5.25Zm0,2.971A2.476,2.476,0,1,1,12.221,10.7,2.477,2.477,0,0,1,14.7,8.221Z" transform="translate(2.634 2.277)" fill="#d3f4ff" fill-rule="evenodd"/>
      <path id="Path_3109" data-name="Path 3109" d="M30.055,18.817A12.281,12.281,0,0,1,33.91,20.6c.594.452,1.03.893,1.03,1.432a1.4,1.4,0,0,1-.434.891,6.209,6.209,0,0,1-1.816,1.3c-2.729,1.4-7.142,2.27-12.109,2.27s-9.38-.873-12.109-2.27a6.209,6.209,0,0,1-1.816-1.3,1.4,1.4,0,0,1-.434-.891c0-.539.436-.98,1.03-1.432a12.281,12.281,0,0,1,3.854-1.783,1.486,1.486,0,0,0-.856-2.846,13.62,13.62,0,0,0-5.5,2.87,4.446,4.446,0,0,0-1.5,3.191,4.975,4.975,0,0,0,2.385,3.933c2.8,2.028,8.437,3.494,14.946,3.494s12.141-1.466,14.946-3.494a4.975,4.975,0,0,0,2.385-3.933,4.446,4.446,0,0,0-1.5-3.191,13.62,13.62,0,0,0-5.5-2.87,1.486,1.486,0,0,0-.856,2.846Z" transform="translate(-3.25 11.541)" fill="#d3f4ff" fill-rule="evenodd"/>
    </g>
  </g>
</svg>
