<svg id="calendar-date" xmlns="http://www.w3.org/2000/svg" width="45.949" height="46.495" viewBox="0 0 45.949 46.495">
  <path id="Union_64" data-name="Union 64" d="M37.558,46.495a1.854,1.854,0,1,1,0-3.709h2.736a1.945,1.945,0,0,0,1.943-1.946V20.468c0-.549-.025-2.937.133-4.932H3.713v25.3a1.945,1.945,0,0,0,1.943,1.946H8.392a1.854,1.854,0,1,1,0,3.709H5.655A5.656,5.656,0,0,1,0,40.84V7.412A5.655,5.655,0,0,1,5.655,1.758H9.046a1.847,1.847,0,0,1,3.689,0c.008,0,.008.068.008.068v.028l8.384-.1a1.85,1.85,0,0,1,3.695,0h8.392a1.847,1.847,0,0,1,3.689,0h3.391A5.655,5.655,0,0,1,45.95,7.412V40.84a5.656,5.656,0,0,1-5.655,5.655ZM3.713,7.412v4.415H42.237V7.412a1.945,1.945,0,0,0-1.943-1.946H36.9a1.847,1.847,0,0,1-3.689,0H24.822a1.85,1.85,0,0,1-3.695,0H12.743a1.851,1.851,0,0,1-3.7,0H5.655A1.945,1.945,0,0,0,3.713,7.412Zm6.743,26.557A12.522,12.522,0,1,1,22.977,46.495,12.536,12.536,0,0,1,10.455,33.969Zm3.356,0a9.164,9.164,0,1,0,9.166-9.166A9.175,9.175,0,0,0,13.811,33.973Zm6.369,4.174-2.77-2.765a1.934,1.934,0,0,1,0-2.718,1.97,1.97,0,0,1,2.713,0l1.4,1.4L25.8,29.791a1.98,1.98,0,0,1,2.737,0,1.958,1.958,0,0,1,0,2.741l-5.611,5.611a1.949,1.949,0,0,1-1.388.57A1.9,1.9,0,0,1,20.18,38.147Z" transform="translate(0 0)" fill="#fff"/>
</svg>
