<svg id="web-browser" xmlns="http://www.w3.org/2000/svg" width="43.196" height="41.498" viewBox="0 0 43.196 41.498">
  <g id="Group_1051" data-name="Group 1051" transform="translate(0 0)">
    <g id="Group_1050" data-name="Group 1050" transform="translate(0 0)">
      <g id="Group_1049" data-name="Group 1049" transform="translate(6.35 5.561)">
        <path id="Path_3217" data-name="Path 3217" d="M22.361,13.232h-10.9a1.553,1.553,0,1,1,0-3.106h10.9a1.553,1.553,0,0,1,0,3.106Z" transform="translate(-9.909 -10.036)" fill="#1b9c5d"/>
        <g id="Group_1048" data-name="Group 1048" transform="translate(17.678)">
          <path id="Path_3218" data-name="Path 3218" d="M37.162,10A1.642,1.642,0,1,0,38.8,11.638,1.642,1.642,0,0,0,37.162,10Z" transform="translate(-35.52 -9.996)" fill="#1b9c5d"/>
          <path id="Path_3219" data-name="Path 3219" d="M44.069,10a1.642,1.642,0,1,0,1.642,1.642A1.642,1.642,0,0,0,44.069,10Z" transform="translate(-37.659 -9.996)" fill="#1b9c5d"/>
          <path id="Path_3220" data-name="Path 3220" d="M50.975,10a1.642,1.642,0,1,0,1.642,1.642A1.642,1.642,0,0,0,50.975,10Z" transform="translate(-39.799 -9.996)" fill="#1b9c5d"/>
        </g>
      </g>
      <path id="Path_3221" data-name="Path 3221" d="M39.571,1.94H5.045A4.338,4.338,0,0,0,.71,6.275V37.267A4.338,4.338,0,0,0,5.045,41.6h5.481a1.726,1.726,0,1,0,0-3.451H5.045a.886.886,0,0,1-.884-.884V16.345H40.454V37.267a.886.886,0,0,1-.884.884H38.163a1.726,1.726,0,0,0,0,3.451h1.408a4.338,4.338,0,0,0,4.335-4.335V6.275A4.338,4.338,0,0,0,39.571,1.94Zm.884,10.954H4.161V6.275a.885.885,0,0,1,.884-.884H39.571a.885.885,0,0,1,.884.884Z" transform="translate(-0.71 -1.94)" fill="#1b9c5d"/>
    </g>
    <path id="Path_3222" data-name="Path 3222" d="M36.728,50.594,31.8,45.671a8.272,8.272,0,0,1,3.467-1.058,1.728,1.728,0,0,0,1.069-.5l.191-.192a1.725,1.725,0,0,0-.555-2.809L20.64,34.688a1.726,1.726,0,0,0-2.258,2.258L24.8,52.283a1.725,1.725,0,0,0,1.259,1.026,1.753,1.753,0,0,0,.333.032,1.731,1.731,0,0,0,1.222-.506l.192-.192a1.729,1.729,0,0,0,.5-1.066,8.286,8.286,0,0,1,1.059-3.468l4.924,4.924a1.725,1.725,0,1,0,2.439-2.44ZM26.207,46.7l-3.016-7.2,7.2,3.016a10.363,10.363,0,0,0-2.305,1.7c-.033.028-.07.051-.1.082s-.053.067-.081.1A10.361,10.361,0,0,0,26.207,46.7Z" transform="translate(-6.142 -12.042)" fill="#1b9c5d"/>
  </g>
</svg>
