<svg xmlns="http://www.w3.org/2000/svg" width="68" height="68" viewBox="0 0 68 68">
  <g id="Group_1235" data-name="Group 1235" transform="translate(-905 -286)">
    <g id="Ellipse_16" data-name="Ellipse 16" transform="translate(905 286)" fill="#fff" stroke="#e7e7e7" stroke-width="2">
      <circle cx="34" cy="34" r="34" stroke="none"/>
      <circle cx="34" cy="34" r="33" fill="none"/>
    </g>
    <g id="family" transform="translate(920 297)">
      <g id="Group_253" data-name="Group 253" transform="translate(0)">
        <path id="Path_2914" data-name="Path 2914" d="M34.359,7.13A4.647,4.647,0,1,0,39,11.776,4.647,4.647,0,0,0,34.359,7.13Zm0,7.866a3.219,3.219,0,1,1,3.216-3.221A3.219,3.219,0,0,1,34.359,15Z" transform="translate(-23.118 -7.13)" fill="#595959" stroke="#595959" stroke-width="0.1"/>
        <path id="Path_2915" data-name="Path 2915" d="M78.385,7.13a4.647,4.647,0,1,0,4.649,4.645A4.647,4.647,0,0,0,78.385,7.13Zm0,7.866a3.219,3.219,0,1,1,3.221-3.22A3.219,3.219,0,0,1,78.385,15Z" transform="translate(-50.92 -7.13)" fill="#595959" stroke="#595959" stroke-width="0.1"/>
        <path id="Path_2916" data-name="Path 2916" d="M55.914,45.647,54.407,37.8a7.464,7.464,0,0,0-7.4-5.945H44.995a7.66,7.66,0,0,0-6.114,3.04,4.744,4.744,0,0,0-2.647-.056,4.27,4.27,0,0,0-3.66-2.623H23.157c-2.33,0-4.537,3.152-4.537,6.487v9.985a2.332,2.332,0,0,0,2.367,2.288,2.471,2.471,0,0,0,.828-.143L21.23,63.555a3.563,3.563,0,0,0,2.451,3.517,3.758,3.758,0,0,0,4.194-1.245,3.694,3.694,0,0,0,2.661,1.437A3.736,3.736,0,0,0,33.4,66.257a2.777,2.777,0,0,0,1.873,1.007,2.835,2.835,0,0,0,2.33-.872,2.8,2.8,0,0,0,2.407.863A2.745,2.745,0,0,0,42.1,65.819a2.368,2.368,0,0,0,1.728,1.406A2.443,2.443,0,0,0,46,66.611a2.458,2.458,0,0,0,2.505.523,2.331,2.331,0,0,0,1.563-1.964L51.1,54.227h2.322a.734.734,0,0,0,.542-.238.684.684,0,0,0,.174-.55l-.445-3.283a4.2,4.2,0,0,0,2.219-4.509ZM37.456,36.068A3.14,3.14,0,1,1,34.208,39.2a3.193,3.193,0,0,1,3.248-3.136ZM42.273,55.5a.543.543,0,0,1-.552.533.71.71,0,0,0-.721.7v7.776a1.348,1.348,0,0,1-2.235,1.043,1.272,1.272,0,0,1-.441-.96V57.331a.721.721,0,0,0-1.441,0V64.59a1.268,1.268,0,0,1-.438.96,1.35,1.35,0,0,1-2.238-1.043V56.73A.683.683,0,0,0,34,56.237a.732.732,0,0,0-.51-.2h-.3a.546.546,0,0,1-.552-.533V50.494A4.375,4.375,0,0,1,32.8,49.3a4.815,4.815,0,0,1,5.281-3.44,4.712,4.712,0,0,1,4.2,4.63Zm3.006,9.459a.94.94,0,0,1-.955.923.955.955,0,0,1-.955-.84l-.741-7.832A1.927,1.927,0,0,0,43.714,55.5V54.227h1.565Zm3.351.084a.959.959,0,0,1-1.91-.084V54.227h2.936Zm4.792-16.38L51.15,37.728a.72.72,0,0,0-.848-.545.7.7,0,0,0-.564.82c.021.107.041.2.058.275a.042.042,0,0,0,0,.02c0,.008,0,.02,0,.028a.012.012,0,0,0,0,.008.035.035,0,0,0,0,.02c0,.012,0,.024,0,.036s0,.008,0,.016a.119.119,0,0,0,.008.032c0,.028.012.052.016.084,0,.008,0,.016,0,.024a.042.042,0,0,1,0,.02.17.17,0,0,1,.008.04.014.014,0,0,1,0,.012c.181.875.753,3.633,2.339,11.262l.4,2.957H43.714v-2.34a6.264,6.264,0,0,0-12.52,0V55.5a1.945,1.945,0,0,0,1.573,1.882c.008,7.49-.012,7.123.016,7.4a2.27,2.27,0,0,1-2.521,1.027,2.177,2.177,0,0,1-1.666-2.1V49.746a.721.721,0,0,0-1.441,0v13.98a2.244,2.244,0,0,1-4.484-.107l.676-14.74c0-.044,0-8.1.008-10.542a.721.721,0,0,0-1.441,0L21.906,48.8a.918.918,0,0,1-.978.78.908.908,0,0,1-.866-.9V38.7c0-2.694,1.733-5.094,3.1-5.094h9.416a2.914,2.914,0,0,1,2.343,1.8,4.586,4.586,0,0,0-1.861,2.244,4.474,4.474,0,0,0,2.395,5.659,4.773,4.773,0,0,0,6.046-1.8,4.436,4.436,0,0,0-1.313-5.981,6.208,6.208,0,0,1,4.813-2.284h2.013A6.042,6.042,0,0,1,52.99,38.05L54.5,45.9A2.811,2.811,0,0,1,53.423,48.664Z" transform="translate(-18.62 -21.76)" fill="#595959" stroke="#595959" stroke-width="0.1"/>
      </g>
    </g>
  </g>
</svg>
