<svg xmlns="http://www.w3.org/2000/svg" width="155.679" height="41.985" viewBox="0 0 155.679 41.985">
  <g id="Group_1609" data-name="Group 1609" transform="translate(-4997.321 470.149)">
    <g id="Union_9" data-name="Union 9" transform="translate(4997.321 -470.148)" fill="#fff">
      <path d="M 151.1199035644531 41.48410034179688 L 2.999699115753174 41.48410034179688 C 1.62135922908783 41.48410034179688 0.4999991953372955 40.36273956298828 0.4999991953372955 38.98440170288086 L 0.4999991953372955 11.85570049285889 C 0.4999991953372955 10.47686004638672 1.62135922908783 9.355099678039551 2.999699115753174 9.355099678039551 L 50.46313858032227 9.355099678039551 L 50.68579864501953 9.355099678039551 L 50.83477783203125 9.189599990844727 L 58.43429946899414 0.7464939951896667 L 66.03382110595703 9.189599990844727 L 66.18280029296875 9.355099678039551 L 66.40545654296875 9.355099678039551 L 151.1199035644531 9.355099678039551 C 152.4982452392578 9.355099678039551 153.6195983886719 10.47686004638672 153.6195983886719 11.85570049285889 L 153.6195983886719 38.98440170288086 C 153.6195983886719 40.36273956298828 152.4982452392578 41.48410034179688 151.1199035644531 41.48410034179688 Z" stroke="none"/>
      <path d="M 151.1199035644531 40.98410034179688 C 152.2225341796875 40.98410034179688 153.1195983886719 40.08703994750977 153.1195983886719 38.98440170288086 L 153.1195983886719 11.85570049285889 C 153.1195983886719 10.75255966186523 152.2225341796875 9.855099678039551 151.1199035644531 9.855099678039551 L 65.96012115478516 9.855099678039551 L 58.43429946899414 1.493865728378296 L 50.90847778320312 9.855099678039551 L 2.999699115753174 9.855099678039551 C 1.897059202194214 9.855099678039551 0.9999991655349731 10.75255966186523 0.9999991655349731 11.85570049285889 L 0.9999991655349731 38.98440170288086 C 0.9999991655349731 40.08703994750977 1.897059202194214 40.98410034179688 2.999699115753174 40.98410034179688 L 151.1199035644531 40.98410034179688 M 151.1199035644531 41.98410034179688 L 2.999699115753174 41.98410034179688 C 1.342799186706543 41.98410034179688 -8.056640581344254e-07 40.64130020141602 -8.056640581344254e-07 38.98440170288086 L -8.056640581344254e-07 11.85570049285889 C -8.056640581344254e-07 10.1988000869751 1.342799186706543 8.855099678039551 2.999699115753174 8.855099678039551 L 50.46313858032227 8.855099678039551 L 58.43429946899414 -0.0008999633719213307 L 66.40545654296875 8.855099678039551 L 151.1199035644531 8.855099678039551 C 152.7768249511719 8.855099678039551 154.1195983886719 10.1988000869751 154.1195983886719 11.85570049285889 L 154.1195983886719 38.98440170288086 C 154.1195983886719 40.64130020141602 152.7768249511719 41.98410034179688 151.1199035644531 41.98410034179688 Z" stroke="none" fill="#dedede"/>
    </g>
    <g id="Group_386" data-name="Group 386" transform="translate(4993 -461.293)">
      <text id="Coming_Soon..._" data-name="Coming Soon...☺ " transform="translate(9 22)" fill="#606466" font-size="18" font-family="Quicksand-Regular, Quicksand"><tspan x="0" y="0">Coming Soon...</tspan><tspan y="0" font-family="SegoeUIEmoji, Segoe UI Emoji">☺</tspan><tspan y="0"> </tspan></text>
    </g>
  </g>
</svg>
