<svg xmlns="http://www.w3.org/2000/svg" width="82" height="29.148" viewBox="0 0 82 29.148">
  <g id="Group_1307" data-name="Group 1307" transform="translate(-4996 470.148)">
    <g id="Union_9" data-name="Union 9" transform="translate(13014 1383.851)" fill="#fff">
      <path d="M -7939.0009765625 -1825.3515625 L -8014.99951171875 -1825.3515625 C -8016.37841796875 -1825.3515625 -8017.5 -1826.473266601562 -8017.5 -1827.851928710938 L -8017.5 -1844.851440429688 C -8017.5 -1846.230102539062 -8016.37841796875 -1847.351684570312 -8014.99951171875 -1847.351684570312 L -7982.96630859375 -1847.351684570312 L -7982.74365234375 -1847.351684570312 L -7982.5947265625 -1847.51708984375 L -7977.43115234375 -1853.251831054688 L -7972.26904296875 -1847.517211914062 L -7972.1201171875 -1847.351684570312 L -7971.8974609375 -1847.351684570312 L -7939.0009765625 -1847.351684570312 C -7937.6220703125 -1847.351684570312 -7936.50048828125 -1846.230102539062 -7936.50048828125 -1844.851440429688 L -7936.50048828125 -1827.851928710938 C -7936.50048828125 -1826.473266601562 -7937.6220703125 -1825.3515625 -7939.0009765625 -1825.3515625 Z" stroke="none"/>
      <path d="M -7939.0009765625 -1825.8515625 C -7937.89794921875 -1825.8515625 -7937.00048828125 -1826.748901367188 -7937.00048828125 -1827.851928710938 L -7937.00048828125 -1844.851440429688 C -7937.00048828125 -1845.954345703125 -7937.89794921875 -1846.851684570312 -7939.0009765625 -1846.851684570312 L -7972.3427734375 -1846.851684570312 L -7977.43115234375 -1852.504516601562 L -7982.52099609375 -1846.851684570312 L -8014.99951171875 -1846.851684570312 C -8016.1025390625 -1846.851684570312 -8017 -1845.954345703125 -8017 -1844.851440429688 L -8017 -1827.851928710938 C -8017 -1826.748901367188 -8016.1025390625 -1825.8515625 -8014.99951171875 -1825.8515625 L -7939.0009765625 -1825.8515625 M -7939.0009765625 -1824.8515625 L -8014.99951171875 -1824.8515625 C -8016.65576171875 -1824.8515625 -8018 -1826.193725585938 -8018 -1827.851928710938 L -8018 -1844.851440429688 C -8018 -1846.507446289062 -8016.65576171875 -1847.851684570312 -8014.99951171875 -1847.851684570312 L -7982.96630859375 -1847.851684570312 L -7977.43115234375 -1853.999145507812 L -7971.8974609375 -1847.851684570312 L -7939.0009765625 -1847.851684570312 C -7937.3427734375 -1847.851684570312 -7936.00048828125 -1846.507446289062 -7936.00048828125 -1844.851440429688 L -7936.00048828125 -1827.851928710938 C -7936.00048828125 -1826.193725585938 -7937.3427734375 -1824.8515625 -7939.0009765625 -1824.8515625 Z" stroke="none" fill="#dedede"/>
    </g>
    <g id="Group_386" data-name="Group 386" transform="translate(3787.141 -755)">
      <text id="_For_Families" data-name=" For Families" transform="translate(1214.859 307)" fill="#606466" font-size="12" font-family="Quicksand-Regular, Quicksand"><tspan x="0" y="0" xml:space="preserve"> For Families</tspan></text>
    </g>
  </g>
</svg>
