<svg xmlns="http://www.w3.org/2000/svg" width="45.412" height="45.409" viewBox="0 0 45.412 45.409">
  <path id="Union_30" data-name="Union 30" d="M11843.867,6551.63a12.3,12.3,0,1,1,12.3,12.3A12.314,12.314,0,0,1,11843.867,6551.63Zm2.838,0a9.46,9.46,0,1,0,9.459-9.459A9.467,9.467,0,0,0,11846.705,6551.63Zm8.039,5.2v-3.783h-3.785a1.419,1.419,0,0,1,0-2.838h3.785v-3.789a1.419,1.419,0,0,1,2.838,0v3.789h3.787a1.419,1.419,0,0,1,0,2.838h-3.787v3.783a1.419,1.419,0,1,1-2.838,0Zm-26.484,1.419a5.211,5.211,0,0,1-5.209-5.2v-29.328a5.212,5.212,0,0,1,5.209-5.2h21.754a5.212,5.212,0,0,1,5.209,5.2v11.521a1.422,1.422,0,0,1-2.844,0v-11.521a2.368,2.368,0,0,0-2.365-2.366h-21.754a2.372,2.372,0,0,0-2.371,2.366v29.328a2.371,2.371,0,0,0,2.371,2.364h12.184a1.419,1.419,0,1,1,0,2.838Zm1.893-14.188a1.419,1.419,0,1,1,0-2.837h10.4a1.419,1.419,0,0,1,0,2.837Zm0-7.573a1.419,1.419,0,1,1,0-2.838h17.969a1.419,1.419,0,1,1,0,2.838Zm0-7.567a1.419,1.419,0,1,1,0-2.838h8.51a1.419,1.419,0,1,1,0,2.838Z" transform="translate(-11823.051 -6518.517)" fill="#284866"/>
</svg>
